<svg width="190" height="196" viewBox="0 0 190 196" fill="none" xmlns="http://www.w3.org/2000/svg">
<path fill-rule="evenodd" clip-rule="evenodd" d="M1.25781 195.25H22.9858V31.6692L158.01 174.143H73.581V119.823L52.1634 100.888V195.25H188.739V176.005L113.623 96.8532L188.739 23.9092V1.25H52.1634V31.6692L22.9858 1.25H1.25781V195.25ZM99.9649 81.6436L158.01 23.9092H73.581V53.7076L99.9649 81.6436Z" fill="#292727"/>
<path d="M22.9858 195.25V195.56H23.2962V195.25H22.9858ZM1.25781 195.25H0.947413V195.56H1.25781V195.25ZM22.9858 31.6692L23.2111 31.4557L22.6754 30.8904V31.6692H22.9858ZM158.01 174.143V174.453H158.731L158.235 173.929L158.01 174.143ZM73.581 174.143H73.2706V174.453H73.581V174.143ZM73.581 119.823H73.8914V119.683L73.7865 119.59L73.581 119.823ZM52.1634 100.888L52.369 100.656L51.853 100.2V100.888H52.1634ZM52.1634 195.25H51.853V195.56H52.1634V195.25ZM188.739 195.25V195.56H189.05V195.25H188.739ZM188.739 176.005H189.05V175.881L188.964 175.792L188.739 176.005ZM113.623 96.8532L113.406 96.6305L113.186 96.8443L113.397 97.0669L113.623 96.8532ZM188.739 23.9092L188.955 24.1319L189.05 24.0404V23.9092H188.739ZM188.739 1.25H189.05V0.9396H188.739V1.25ZM52.1634 1.25V0.9396H51.853V1.25H52.1634ZM52.1634 31.6692L51.9394 31.8841L52.4738 32.4412V31.6692H52.1634ZM22.9858 1.25L23.2098 1.03513L23.1182 0.9396H22.9858V1.25ZM1.25781 1.25V0.9396H0.947413V1.25H1.25781ZM158.01 23.9092L158.229 24.1293L158.762 23.5988H158.01V23.9092ZM99.9649 81.6436L99.7393 81.8567L99.958 82.0883L100.184 81.8637L99.9649 81.6436ZM73.581 23.9092V23.5988H73.2706V23.9092H73.581ZM73.581 53.7076H73.2706V53.831L73.3553 53.9207L73.581 53.7076ZM73.581 23.9092V23.5988H73.2706V23.9092H73.581ZM158.01 23.9092L158.229 24.1293L158.762 23.5988H158.01V23.9092ZM22.9858 194.94H1.25781V195.56H22.9858V194.94ZM22.6754 31.6692V195.25H23.2962V31.6692H22.6754ZM158.235 173.929L23.2111 31.4557L22.7605 31.8827L157.784 174.356L158.235 173.929ZM73.581 174.453H158.01V173.832H73.581V174.453ZM73.2706 119.823V174.143H73.8914V119.823H73.2706ZM51.9578 101.121L73.3754 120.055L73.7865 119.59L52.369 100.656L51.9578 101.121ZM52.4738 195.25V100.888H51.853V195.25H52.4738ZM188.739 194.94H52.1634V195.56H188.739V194.94ZM188.429 176.005V195.25H189.05V176.005H188.429ZM113.397 97.0669L188.514 176.219L188.964 175.792L113.848 96.6395L113.397 97.0669ZM188.523 23.6865L113.406 96.6305L113.839 97.0759L188.955 24.1319L188.523 23.6865ZM188.429 1.25V23.9092H189.05V1.25H188.429ZM52.1634 1.5604H188.739V0.9396H52.1634V1.5604ZM52.4738 31.6692V1.25H51.853V31.6692H52.4738ZM22.7618 1.46487L51.9394 31.8841L52.3874 31.4543L23.2098 1.03513L22.7618 1.46487ZM1.25781 1.5604H22.9858V0.9396H1.25781V1.5604ZM1.56821 195.25V1.25H0.947413V195.25H1.56821ZM157.791 23.6891L99.746 81.4235L100.184 81.8637L158.229 24.1293L157.791 23.6891ZM73.581 24.2196H158.01V23.5988H73.581V24.2196ZM73.8914 53.7076V23.9092H73.2706V53.7076H73.8914ZM100.191 81.4305L73.8066 53.4945L73.3553 53.9207L99.7393 81.8567L100.191 81.4305ZM73.8914 53.7076V23.9092H73.2706V53.7076H73.8914ZM73.581 24.2196H158.01V23.5988H73.581V24.2196ZM157.791 23.6891L99.746 81.4235L100.184 81.8637L158.229 24.1293L157.791 23.6891Z" fill="black"/>
</svg>
