<svg width="40" height="41" viewBox="0 0 40 41" fill="none" xmlns="http://www.w3.org/2000/svg">
<path fill-rule="evenodd" clip-rule="evenodd" d="M0.670898 40.25H5.15093V6.522L32.9911 35.898H15.583V24.698L11.167 20.794V40.25H39.3271V36.282L23.839 19.962L39.3271 4.922V0.25H11.167V6.522L5.15093 0.25H0.670898V40.25ZM21.0227 16.826L32.9907 4.92202H15.5826V11.066L21.0227 16.826Z" fill="#292727"/>
<path d="M5.15093 40.25V40.314H5.21493V40.25H5.15093ZM0.670898 40.25H0.606898V40.314H0.670898V40.25ZM5.15093 6.522L5.19738 6.47798L5.08693 6.36143V6.522H5.15093ZM32.9911 35.898V35.962H33.1399L33.0376 35.854L32.9911 35.898ZM15.583 35.898H15.519V35.962H15.583V35.898ZM15.583 24.698H15.647V24.6692L15.6254 24.6501L15.583 24.698ZM11.167 20.794L11.2094 20.7461L11.103 20.652V20.794H11.167ZM11.167 40.25H11.103V40.314H11.167V40.25ZM39.3271 40.25V40.314H39.3911V40.25H39.3271ZM39.3271 36.282H39.3911V36.2565L39.3736 36.2379L39.3271 36.282ZM23.839 19.962L23.7945 19.9161L23.7491 19.9602L23.7926 20.0061L23.839 19.962ZM39.3271 4.922L39.3717 4.96791L39.3911 4.94906V4.922H39.3271ZM39.3271 0.25H39.3911V0.186H39.3271V0.25ZM11.167 0.25V0.186H11.103V0.25H11.167ZM11.167 6.522L11.1208 6.5663L11.231 6.68118V6.522H11.167ZM5.15093 0.25L5.19712 0.205697L5.17822 0.186H5.15093V0.25ZM0.670898 0.25V0.186H0.606898V0.25H0.670898ZM32.9907 4.92202L33.0359 4.9674L33.1458 4.85802H32.9907V4.92202ZM21.0227 16.826L20.9761 16.87L21.0212 16.9177L21.0678 16.8714L21.0227 16.826ZM15.5826 4.92202V4.85802H15.5186V4.92202H15.5826ZM15.5826 11.066H15.5186V11.0915L15.5361 11.11L15.5826 11.066ZM15.583 4.922V4.858H15.519V4.922H15.583ZM32.9911 4.922L33.0362 4.96738L33.1462 4.858H32.9911V4.922ZM21.023 16.826L20.9766 16.87L21.0217 16.9176L21.0682 16.8714L21.023 16.826ZM5.15093 40.186H0.670898V40.314H5.15093V40.186ZM5.08693 6.522V40.25H5.21493V6.522H5.08693ZM33.0376 35.854L5.19738 6.47798L5.10447 6.56602L32.9447 35.942L33.0376 35.854ZM15.583 35.962H32.9911V35.834H15.583V35.962ZM15.519 24.698V35.898H15.647V24.698H15.519ZM11.1246 20.8419L15.5406 24.746L15.6254 24.6501L11.2094 20.7461L11.1246 20.8419ZM11.231 40.25V20.794H11.103V40.25H11.231ZM39.3271 40.186H11.167V40.314H39.3271V40.186ZM39.2631 36.282V40.25H39.3911V36.282H39.2631ZM23.7926 20.0061L39.2807 36.3261L39.3736 36.2379L23.8855 19.9179L23.7926 20.0061ZM39.2826 4.87609L23.7945 19.9161L23.8836 20.0079L39.3717 4.96791L39.2826 4.87609ZM39.2631 0.25V4.922H39.3911V0.25H39.2631ZM11.167 0.314H39.3271V0.186H11.167V0.314ZM11.231 6.522V0.25H11.103V6.522H11.231ZM5.10474 0.294303L11.1208 6.5663L11.2132 6.4777L5.19712 0.205697L5.10474 0.294303ZM0.670898 0.314H5.15093V0.186H0.670898V0.314ZM0.734899 40.25V0.25H0.606898V40.25H0.734899ZM32.9456 4.87665L20.9775 16.7806L21.0678 16.8714L33.0359 4.9674L32.9456 4.87665ZM15.5826 4.98602H32.9907V4.85802H15.5826V4.98602ZM15.6466 11.066V4.92202H15.5186V11.066H15.6466ZM21.0692 16.7821L15.6291 11.0221L15.5361 11.11L20.9761 16.87L21.0692 16.7821ZM15.647 4.92202V4.922H15.519V4.92202H15.647ZM15.583 4.986H32.9911V4.858H15.583V4.986ZM32.946 4.87662L20.9779 16.7806L21.0682 16.8714L33.0362 4.96738L32.946 4.87662ZM21.0695 16.782L21.0693 16.7818L20.9764 16.8698L20.9766 16.87L21.0695 16.782Z" fill="black"/>
</svg>
