<svg width="196" height="57" viewBox="0 0 196 57" fill="none" xmlns="http://www.w3.org/2000/svg">
<path fill-rule="evenodd" clip-rule="evenodd" d="M0.514648 56.0628H6.68871V9.58088L45.0561 50.0651H21.0655V34.6299L14.9796 29.2497V56.0628H53.788V50.5943L32.4434 28.1031L53.788 7.37586V0.937195H14.9796V9.58088L6.68871 0.937195H0.514648V56.0628ZM28.5623 23.7812L45.0559 7.37586H21.0652V15.8431L28.5623 23.7812Z" fill="#292727"/>
<path d="M6.68871 56.0628V56.151H6.77691V56.0628H6.68871ZM0.514648 56.0628H0.426448V56.151H0.514648V56.0628ZM6.68871 9.58088L6.75273 9.52021L6.60051 9.35959V9.58088H6.68871ZM45.0561 50.0651V50.1533H45.2612L45.1201 50.0044L45.0561 50.0651ZM21.0655 50.0651H20.9773V50.1533H21.0655V50.0651ZM21.0655 34.6299H21.1537V34.5902L21.1239 34.5639L21.0655 34.6299ZM14.9796 29.2497L15.038 29.1836L14.8914 29.054V29.2497H14.9796ZM14.9796 56.0628H14.8914V56.151H14.9796V56.0628ZM53.788 56.0628V56.151H53.8762V56.0628H53.788ZM53.788 50.5943H53.8762V50.5591L53.852 50.5336L53.788 50.5943ZM32.4434 28.1031L32.3819 28.0398L32.3194 28.1005L32.3794 28.1638L32.4434 28.1031ZM53.788 7.37586L53.8494 7.43914L53.8762 7.41316V7.37586H53.788ZM53.788 0.937195H53.8762V0.848994H53.788V0.937195ZM14.9796 0.937195V0.848994H14.8914V0.937195H14.9796ZM14.9796 9.58088L14.9159 9.64194L15.0678 9.80025V9.58088H14.9796ZM6.68871 0.937195L6.75236 0.87614L6.72633 0.848994H6.68871V0.937195ZM0.514648 0.937195V0.848994H0.426448V0.937195H0.514648ZM45.0559 7.37586L45.1181 7.43839L45.2696 7.28766H45.0559V7.37586ZM28.5623 23.7812L28.4982 23.8418L28.5604 23.9076L28.6245 23.8438L28.5623 23.7812ZM21.0652 7.37586V7.28766H20.977V7.37586H21.0652ZM21.0652 15.8431H20.977V15.8782L21.0011 15.9037L21.0652 15.8431ZM45.0561 7.37586L45.1183 7.4384L45.2683 7.28916L45.0567 7.28766L45.0561 7.37586ZM28.5625 23.7812L28.4984 23.8418L28.5606 23.9076L28.6247 23.8438L28.5625 23.7812ZM6.68871 55.9746H0.514648V56.151H6.68871V55.9746ZM6.60051 9.58088V56.0628H6.77691V9.58088H6.60051ZM45.1201 50.0044L6.75273 9.52021L6.62469 9.64155L44.9921 50.1258L45.1201 50.0044ZM21.0655 50.1533H45.0561V49.9769H21.0655V50.1533ZM20.9773 34.6299V50.0651H21.1537V34.6299H20.9773ZM14.9212 29.3158L21.007 34.696L21.1239 34.5639L15.038 29.1836L14.9212 29.3158ZM15.0678 56.0628V29.2497H14.8914V56.0628H15.0678ZM53.788 55.9746H14.9796V56.151H53.788V55.9746ZM53.6998 50.5943V56.0628H53.8762V50.5943H53.6998ZM32.3794 28.1638L53.724 50.655L53.852 50.5336L32.5073 28.0424L32.3794 28.1638ZM53.7265 7.31258L32.3819 28.0398L32.5048 28.1663L53.8494 7.43914L53.7265 7.31258ZM53.6998 0.937195V7.37586H53.8762V0.937195H53.6998ZM14.9796 1.0254H53.788V0.848994H14.9796V1.0254ZM15.0678 9.58088V0.937195H14.8914V9.58088H15.0678ZM6.62506 0.99825L14.9159 9.64194L15.0432 9.51983L6.75236 0.87614L6.62506 0.99825ZM0.514648 1.0254H6.68871V0.848994H0.514648V1.0254ZM0.602849 56.0628V0.937195H0.426448V56.0628H0.602849ZM44.9937 7.31332L28.5001 23.7187L28.6245 23.8438L45.1181 7.43839L44.9937 7.31332ZM21.0652 7.46406H45.0559V7.28766H21.0652V7.46406ZM21.1534 15.8431V7.37586H20.977V15.8431H21.1534ZM28.6264 23.7207L21.1294 15.7826L21.0011 15.9037L28.4982 23.8418L28.6264 23.7207ZM45.0553 7.46406L45.0555 7.46406L45.0567 7.28766L45.0565 7.28766L45.0553 7.46406ZM44.9939 7.31333L28.5003 23.7187L28.6247 23.8438L45.1183 7.4384L44.9939 7.31333ZM28.6266 23.7206L28.6265 23.7205L28.4983 23.8417L28.4984 23.8418L28.6266 23.7206Z" fill="black"/>
<path d="M87.3038 45L75.2969 30.2986V45H68.6789V12.0046H75.2969V26.8005L87.3038 12.0046H95.2927L81.6785 28.3605L95.6709 45H87.3038ZM120.256 38.7129H107.115L104.94 45H97.9912L109.856 11.9573H117.562L129.427 45H122.431L120.256 38.7129ZM118.46 33.4185L113.685 19.6153L108.911 33.4185H118.46ZM152.581 28.0769C154.44 28.4235 155.969 29.3532 157.166 30.8659C158.364 32.3785 158.963 34.1118 158.963 36.0657C158.963 37.8305 158.522 39.3905 157.639 40.7456C156.788 42.0692 155.543 43.1091 153.905 43.8655C152.266 44.6218 150.328 45 148.09 45H133.862V12.0046H147.476C149.713 12.0046 151.636 12.367 153.243 13.0918C154.882 13.8167 156.111 14.8251 156.93 16.1172C157.781 17.4093 158.206 18.8747 158.206 20.5134C158.206 22.4358 157.686 24.043 156.646 25.3351C155.638 26.6272 154.283 27.5411 152.581 28.0769ZM140.48 25.6187H146.53C148.106 25.6187 149.319 25.2721 150.17 24.5788C151.021 23.8539 151.447 22.8297 151.447 21.5061C151.447 20.1825 151.021 19.1583 150.17 18.4335C149.319 17.7087 148.106 17.3463 146.53 17.3463H140.48V25.6187ZM147.145 39.6111C148.752 39.6111 149.997 39.2329 150.879 38.4766C151.793 37.7202 152.25 36.6487 152.25 35.2621C152.25 33.844 151.778 32.741 150.832 31.9531C149.887 31.1337 148.61 30.7241 147.003 30.7241H140.48V39.6111H147.145ZM184.469 38.7129H171.328L169.153 45H162.205L174.07 11.9573H181.775L193.64 45H186.644L184.469 38.7129ZM182.673 33.4185L177.899 19.6153L173.124 33.4185H182.673Z" fill="#292727"/>
</svg>
