<svg width="72" height="75" viewBox="0 0 72 75" fill="none" xmlns="http://www.w3.org/2000/svg">
<path fill-rule="evenodd" clip-rule="evenodd" d="M1 74H9.176V12.4464L59.984 66.0576H28.2144V45.6176L20.1552 38.4928V74H71.5472V66.7584L43.2816 36.9744L71.5472 9.5264V1H20.1552V12.4464L9.176 1H1V74ZM38.1424 31.2512L59.984 9.52639H28.2144V20.7392L38.1424 31.2512Z" fill="#292727"/>
<path d="M9.176 74V74.1168H9.2928V74H9.176ZM1 74H0.8832V74.1168H1V74ZM9.176 12.4464L9.26078 12.3661L9.0592 12.1534V12.4464H9.176ZM59.984 66.0576V66.1744H60.2556L60.0688 65.9773L59.984 66.0576ZM28.2144 66.0576H28.0976V66.1744H28.2144V66.0576ZM28.2144 45.6176H28.3312V45.565L28.2918 45.5301L28.2144 45.6176ZM20.1552 38.4928L20.2326 38.4053L20.0384 38.2336V38.4928H20.1552ZM20.1552 74H20.0384V74.1168H20.1552V74ZM71.5472 74V74.1168H71.664V74H71.5472ZM71.5472 66.7584H71.664V66.7118L71.6319 66.678L71.5472 66.7584ZM43.2816 36.9744L43.2002 36.8906L43.1174 36.971L43.1969 37.0548L43.2816 36.9744ZM71.5472 9.5264L71.6286 9.61019L71.664 9.57579V9.5264H71.5472ZM71.5472 1H71.664V0.8832H71.5472V1ZM20.1552 1V0.8832H20.0384V1H20.1552ZM20.1552 12.4464L20.0709 12.5273L20.272 12.7369V12.4464H20.1552ZM9.176 1L9.26029 0.919148L9.22581 0.8832H9.176V1ZM1 1V0.8832H0.8832V1H1ZM59.984 9.52639L60.0664 9.60921L60.2671 9.40959H59.984V9.52639ZM38.1424 31.2512L38.0575 31.3314L38.1398 31.4185L38.2248 31.334L38.1424 31.2512ZM28.2144 9.52639V9.40959H28.0976V9.52639H28.2144ZM28.2144 20.7392H28.0976V20.7856L28.1295 20.8194L28.2144 20.7392ZM28.2144 20.7392H28.0976V20.7856L28.1295 20.8194L28.2144 20.7392ZM28.2144 9.5264L28.184 9.41362L28.0976 9.43689V9.5264H28.2144ZM9.176 73.8832H1V74.1168H9.176V73.8832ZM9.0592 12.4464V74H9.2928V12.4464H9.0592ZM60.0688 65.9773L9.26078 12.3661L9.09122 12.5267L59.8992 66.1379L60.0688 65.9773ZM28.2144 66.1744H59.984V65.9408H28.2144V66.1744ZM28.0976 45.6176V66.0576H28.3312V45.6176H28.0976ZM20.0778 38.5803L28.137 45.7051L28.2918 45.5301L20.2326 38.4053L20.0778 38.5803ZM20.272 74V38.4928H20.0384V74H20.272ZM71.5472 73.8832H20.1552V74.1168H71.5472V73.8832ZM71.4304 66.7584V74H71.664V66.7584H71.4304ZM43.1969 37.0548L71.4625 66.8388L71.6319 66.678L43.3663 36.894L43.1969 37.0548ZM71.4658 9.44261L43.2002 36.8906L43.363 37.0582L71.6286 9.61019L71.4658 9.44261ZM71.4304 1V9.5264H71.664V1H71.4304ZM20.1552 1.1168H71.5472V0.8832H20.1552V1.1168ZM20.272 12.4464V1H20.0384V12.4464H20.272ZM9.09171 1.08085L20.0709 12.5273L20.2395 12.3655L9.26029 0.919148L9.09171 1.08085ZM1 1.1168H9.176V0.8832H1V1.1168ZM1.1168 74V1H0.8832V74H1.1168ZM59.9016 9.44358L38.06 31.1684L38.2248 31.334L60.0664 9.60921L59.9016 9.44358ZM28.2144 9.64319H59.984V9.40959H28.2144V9.64319ZM28.3312 20.7392V9.52639H28.0976V20.7392H28.3312ZM38.2273 31.171L28.2993 20.659L28.1295 20.8194L38.0575 31.3314L38.2273 31.171ZM28.3312 20.7392V9.5264H28.0976V20.7392H28.3312ZM28.2448 9.63918L28.2448 9.63918L28.1841 9.41361L28.184 9.41362L28.2448 9.63918ZM38.2273 31.171L28.2993 20.659L28.1295 20.8194L38.0575 31.3314L38.2273 31.171Z" fill="black"/>
</svg>
