<svg width="259" height="75" viewBox="0 0 259 75" fill="none" xmlns="http://www.w3.org/2000/svg">
<path fill-rule="evenodd" clip-rule="evenodd" d="M1 74H9.176V12.4464L59.984 66.0576H28.2144V45.6176L20.1552 38.4928V74H71.5472V66.7584L43.2816 36.9744L71.5472 9.5264V1H20.1552V12.4464L9.176 1H1V74ZM38.1424 31.2512L59.984 9.52639H28.2144V20.7392L38.1424 31.2512Z" fill="#292727"/>
<path d="M9.176 74V74.1168H9.2928V74H9.176ZM1 74H0.8832V74.1168H1V74ZM9.176 12.4464L9.26078 12.3661L9.0592 12.1534V12.4464H9.176ZM59.984 66.0576V66.1744H60.2556L60.0688 65.9773L59.984 66.0576ZM28.2144 66.0576H28.0976V66.1744H28.2144V66.0576ZM28.2144 45.6176H28.3312V45.565L28.2918 45.5301L28.2144 45.6176ZM20.1552 38.4928L20.2326 38.4053L20.0384 38.2336V38.4928H20.1552ZM20.1552 74H20.0384V74.1168H20.1552V74ZM71.5472 74V74.1168H71.664V74H71.5472ZM71.5472 66.7584H71.664V66.7118L71.6319 66.678L71.5472 66.7584ZM43.2816 36.9744L43.2002 36.8906L43.1174 36.971L43.1969 37.0548L43.2816 36.9744ZM71.5472 9.5264L71.6286 9.61019L71.664 9.57579V9.5264H71.5472ZM71.5472 1H71.664V0.8832H71.5472V1ZM20.1552 1V0.8832H20.0384V1H20.1552ZM20.1552 12.4464L20.0709 12.5273L20.272 12.7369V12.4464H20.1552ZM9.176 1L9.26029 0.919148L9.22581 0.8832H9.176V1ZM1 1V0.8832H0.8832V1H1ZM59.984 9.52639L60.0664 9.60921L60.2671 9.40959H59.984V9.52639ZM38.1424 31.2512L38.0575 31.3314L38.1398 31.4185L38.2248 31.334L38.1424 31.2512ZM28.2144 9.52639V9.40959H28.0976V9.52639H28.2144ZM28.2144 20.7392H28.0976V20.7856L28.1295 20.8194L28.2144 20.7392ZM28.2144 20.7392H28.0976V20.7856L28.1295 20.8194L28.2144 20.7392ZM28.2144 9.5264L28.184 9.41362L28.0976 9.43689V9.5264H28.2144ZM9.176 73.8832H1V74.1168H9.176V73.8832ZM9.0592 12.4464V74H9.2928V12.4464H9.0592ZM60.0688 65.9773L9.26078 12.3661L9.09122 12.5267L59.8992 66.1379L60.0688 65.9773ZM28.2144 66.1744H59.984V65.9408H28.2144V66.1744ZM28.0976 45.6176V66.0576H28.3312V45.6176H28.0976ZM20.0778 38.5803L28.137 45.7051L28.2918 45.5301L20.2326 38.4053L20.0778 38.5803ZM20.272 74V38.4928H20.0384V74H20.272ZM71.5472 73.8832H20.1552V74.1168H71.5472V73.8832ZM71.4304 66.7584V74H71.664V66.7584H71.4304ZM43.1969 37.0548L71.4625 66.8388L71.6319 66.678L43.3663 36.894L43.1969 37.0548ZM71.4658 9.44261L43.2002 36.8906L43.363 37.0582L71.6286 9.61019L71.4658 9.44261ZM71.4304 1V9.5264H71.664V1H71.4304ZM20.1552 1.1168H71.5472V0.8832H20.1552V1.1168ZM20.272 12.4464V1H20.0384V12.4464H20.272ZM9.09171 1.08085L20.0709 12.5273L20.2395 12.3655L9.26029 0.919148L9.09171 1.08085ZM1 1.1168H9.176V0.8832H1V1.1168ZM1.1168 74V1H0.8832V74H1.1168ZM59.9016 9.44358L38.06 31.1684L38.2248 31.334L60.0664 9.60921L59.9016 9.44358ZM28.2144 9.64319H59.984V9.40959H28.2144V9.64319ZM28.3312 20.7392V9.52639H28.0976V20.7392H28.3312ZM38.2273 31.171L28.2993 20.659L28.1295 20.8194L38.0575 31.3314L38.2273 31.171ZM28.3312 20.7392V9.5264H28.0976V20.7392H28.3312ZM28.2448 9.63918L28.2448 9.63918L28.1841 9.41361L28.184 9.41362L28.2448 9.63918ZM38.2273 31.171L28.2993 20.659L28.1295 20.8194L38.0575 31.3314L38.2273 31.171Z" fill="black"/>
<path d="M115.854 59.5L99.9542 40.0317V59.5H91.1903V15.8058H99.9542V35.3994L115.854 15.8058H126.434L108.405 37.4651L126.934 59.5H115.854ZM159.491 51.1743H142.089L139.209 59.5H130.007L145.72 15.7432H155.923L171.636 59.5H162.371L159.491 51.1743ZM157.113 44.1632L150.79 25.8843L144.468 44.1632H157.113ZM202.298 37.0895C204.76 37.5486 206.784 38.7797 208.37 40.7829C209.956 42.786 210.749 45.0813 210.749 47.6688C210.749 50.0058 210.164 52.0716 208.996 53.8661C207.869 55.6189 206.221 56.996 204.051 57.9976C201.88 58.9992 199.314 59.5 196.351 59.5H177.509V15.8058H195.537C198.5 15.8058 201.046 16.2858 203.174 17.2456C205.344 18.2055 206.972 19.5409 208.057 21.252C209.184 22.963 209.747 24.9036 209.747 27.0737C209.747 29.6194 209.059 31.7477 207.681 33.4588C206.346 35.1698 204.551 36.3801 202.298 37.0895ZM186.272 33.8344H194.285C196.372 33.8344 197.978 33.3753 199.105 32.4572C200.232 31.4973 200.795 30.141 200.795 28.3883C200.795 26.6355 200.232 25.2792 199.105 24.3193C197.978 23.3595 196.372 22.8795 194.285 22.8795H186.272V33.8344ZM195.099 52.3637C197.227 52.3637 198.876 51.8629 200.044 50.8613C201.254 49.8597 201.86 48.4408 201.86 46.6046C201.86 44.7266 201.234 43.266 199.982 42.2227C198.73 41.1376 197.039 40.5951 194.911 40.5951H186.272V52.3637H195.099ZM244.526 51.1743H227.123L224.244 59.5H215.042L230.754 15.7432H240.958L256.67 59.5H247.405L244.526 51.1743ZM242.147 44.1632L235.825 25.8843L229.502 44.1632H242.147Z" fill="#292727"/>
</svg>
