<svg width="378" height="390" viewBox="0 0 378 390" fill="none" xmlns="http://www.w3.org/2000/svg">
<path fill-rule="evenodd" clip-rule="evenodd" d="M1.51758 389.25H44.9735V62.0884L315.021 347.036H146.164V238.396L103.329 200.527V389.25H376.48V350.76L226.247 192.456L376.48 46.5684V1.25H103.329V62.0884L44.9735 1.25H1.51758V389.25ZM198.932 162.037L315.021 46.5684H146.164V106.165L198.932 162.037Z" fill="#292727"/>
<path d="M44.9735 389.25V389.871H45.5943V389.25H44.9735ZM1.51758 389.25H0.896778V389.871H1.51758V389.25ZM44.9735 62.0884L45.4241 61.6614L44.3527 60.5309V62.0884H44.9735ZM315.021 347.036V347.656H316.465L315.472 346.609L315.021 347.036ZM146.164 347.036H145.543V347.656H146.164V347.036ZM146.164 238.396H146.785V238.116L146.575 237.93L146.164 238.396ZM103.329 200.527L103.74 200.062L102.708 199.149V200.527H103.329ZM103.329 389.25H102.708V389.871H103.329V389.25ZM376.48 389.25V389.871H377.101V389.25H376.48ZM376.48 350.76H377.101V350.513L376.931 350.333L376.48 350.76ZM226.247 192.456L225.815 192.011L225.374 192.439L225.797 192.884L226.247 192.456ZM376.48 46.5684L376.913 47.0138L377.101 46.8309V46.5684H376.48ZM376.48 1.25H377.101V0.6292H376.48V1.25ZM103.329 1.25V0.6292H102.708V1.25H103.329ZM103.329 62.0884L102.881 62.5181L103.949 63.6324V62.0884H103.329ZM44.9735 1.25L45.4216 0.820267L45.2383 0.6292H44.9735V1.25ZM1.51758 1.25V0.6292H0.896778V1.25H1.51758ZM315.021 46.5684L315.459 47.0086L316.526 45.9476H315.021V46.5684ZM198.932 162.037L198.48 162.463L198.918 162.927L199.37 162.477L198.932 162.037ZM146.164 46.5684V45.9476H145.543V46.5684H146.164ZM146.164 106.165H145.543V106.412L145.713 106.591L146.164 106.165ZM146.164 46.5684V45.9476H145.543V46.5684H146.164ZM315.021 46.5684L315.459 47.0086L316.526 45.9476H315.021V46.5684ZM44.9735 388.629H1.51758V389.871H44.9735V388.629ZM44.3527 62.0884V389.25H45.5943V62.0884H44.3527ZM315.472 346.609L45.4241 61.6614L44.5229 62.5154L314.571 347.463L315.472 346.609ZM146.164 347.656H315.021V346.415H146.164V347.656ZM145.543 238.396V347.036H146.785V238.396H145.543ZM102.918 200.992L145.753 238.861L146.575 237.93L103.74 200.062L102.918 200.992ZM103.949 389.25V200.527H102.708V389.25H103.949ZM376.48 388.629H103.329V389.871H376.48V388.629ZM375.86 350.76V389.25H377.101V350.76H375.86ZM225.797 192.884L376.03 351.188L376.931 350.333L226.697 192.029L225.797 192.884ZM376.048 46.123L225.815 192.011L226.679 192.902L376.913 47.0138L376.048 46.123ZM375.86 1.25V46.5684H377.101V1.25H375.86ZM103.329 1.8708H376.48V0.6292H103.329V1.8708ZM103.949 62.0884V1.25H102.708V62.0884H103.949ZM44.5255 1.67973L102.881 62.5181L103.777 61.6587L45.4216 0.820267L44.5255 1.67973ZM1.51758 1.8708H44.9735V0.6292H1.51758V1.8708ZM2.13838 389.25V1.25H0.896778V389.25H2.13838ZM314.584 46.1283L198.494 161.597L199.37 162.477L315.459 47.0086L314.584 46.1283ZM146.164 47.1892H315.021V45.9476H146.164V47.1892ZM146.785 106.165V46.5684H145.543V106.165H146.785ZM199.383 161.611L146.615 105.739L145.713 106.591L198.48 162.463L199.383 161.611ZM146.785 106.165V46.5684H145.543V106.165H146.785ZM146.164 47.1892H315.021V45.9476H146.164V47.1892ZM314.584 46.1283L198.494 161.597L199.37 162.477L315.459 47.0086L314.584 46.1283Z" fill="black"/>
</svg>
