<svg width="32" height="33" viewBox="0 0 32 33" fill="none" xmlns="http://www.w3.org/2000/svg">
<path fill-rule="evenodd" clip-rule="evenodd" d="M0.536133 32.25H4.12016V5.2676L26.3923 28.7684H12.4658V19.8084L8.93299 16.6852V32.25H31.4611V29.0756L19.0707 16.0196L31.4611 3.9876V0.25H8.93299V5.2676L4.12016 0.25H0.536133V32.25ZM16.8178 13.5108L26.3923 3.9876H12.4658V8.9028L16.8178 13.5108Z" fill="#292727"/>
<path d="M4.12016 32.25V32.3012H4.17136V32.25H4.12016ZM0.536133 32.25H0.484933V32.3012H0.536133V32.25ZM4.12016 5.2676L4.15732 5.23238L4.06896 5.13914V5.2676H4.12016ZM26.3923 28.7684V28.8196H26.5114L26.4295 28.7332L26.3923 28.7684ZM12.4658 28.7684H12.4146V28.8196H12.4658V28.7684ZM12.4658 19.8084H12.517V19.7853L12.4997 19.77L12.4658 19.8084ZM8.93299 16.6852L8.9669 16.6468L8.88179 16.5716V16.6852H8.93299ZM8.93299 32.25H8.88179V32.3012H8.93299V32.25ZM31.4611 32.25V32.3012H31.5123V32.25H31.4611ZM31.4611 29.0756H31.5123V29.0552L31.4983 29.0404L31.4611 29.0756ZM19.0707 16.0196L19.035 15.9829L18.9987 16.0181L19.0335 16.0548L19.0707 16.0196ZM31.4611 3.9876L31.4968 4.02433L31.5123 4.00925V3.9876H31.4611ZM31.4611 0.25H31.5123V0.1988H31.4611V0.25ZM8.93299 0.25V0.1988H8.88179V0.25H8.93299ZM8.93299 5.2676L8.89604 5.30304L8.98419 5.39494V5.2676H8.93299ZM4.12016 0.25L4.15711 0.214558L4.14199 0.1988H4.12016V0.25ZM0.536133 0.25V0.1988H0.484933V0.25H0.536133ZM26.3923 3.9876L26.4284 4.0239L26.5164 3.9364H26.3923V3.9876ZM16.8178 13.5108L16.7806 13.546L16.8167 13.5842L16.854 13.5471L16.8178 13.5108ZM12.4658 3.9876V3.9364H12.4146V3.9876H12.4658ZM12.4658 8.9028H12.4146V8.92315L12.4286 8.93795L12.4658 8.9028ZM12.4658 8.9028H12.4146V8.92316L12.4286 8.93796L12.4658 8.9028ZM12.4658 3.9876L12.4545 3.93767L12.4146 3.94673V3.9876H12.4658ZM4.12016 32.1988H0.536133V32.3012H4.12016V32.1988ZM4.06896 5.2676V32.25H4.17136V5.2676H4.06896ZM26.4295 28.7332L4.15732 5.23238L4.08299 5.30282L26.3551 28.8036L26.4295 28.7332ZM12.4658 28.8196H26.3923V28.7172H12.4658V28.8196ZM12.4146 19.8084V28.7684H12.517V19.8084H12.4146ZM8.89908 16.7236L12.4319 19.8468L12.4997 19.77L8.9669 16.6468L8.89908 16.7236ZM8.98419 32.25V16.6852H8.88179V32.25H8.98419ZM31.4611 32.1988H8.93299V32.3012H31.4611V32.1988ZM31.4099 29.0756V32.25H31.5123V29.0756H31.4099ZM19.0335 16.0548L31.424 29.1108L31.4983 29.0404L19.1078 15.9844L19.0335 16.0548ZM31.4255 3.95087L19.035 15.9829L19.1063 16.0563L31.4968 4.02433L31.4255 3.95087ZM31.4099 0.25V3.9876H31.5123V0.25H31.4099ZM8.93299 0.3012H31.4611V0.1988H8.93299V0.3012ZM8.98419 5.2676V0.25H8.88179V5.2676H8.98419ZM4.08321 0.285442L8.89604 5.30304L8.96994 5.23216L4.15711 0.214558L4.08321 0.285442ZM0.536133 0.3012H4.12016V0.1988H0.536133V0.3012ZM0.587333 32.25V0.25H0.484933V32.25H0.587333ZM26.3562 3.9513L16.7817 13.4745L16.854 13.5471L26.4284 4.0239L26.3562 3.9513ZM12.4658 4.0388H26.3923V3.9364H12.4658V4.0388ZM12.517 8.9028V3.9876H12.4146V8.9028H12.517ZM16.8551 13.4756L12.503 8.86764L12.4286 8.93795L16.7806 13.546L16.8551 13.4756ZM12.517 8.9028V3.9876H12.4146V8.9028H12.517ZM12.4772 4.03753L12.4772 4.03752L12.4545 3.93767L12.4545 3.93767L12.4772 4.03753ZM16.8551 13.4756L12.503 8.86764L12.4286 8.93796L16.7806 13.546L16.8551 13.4756Z" fill="black"/>
</svg>
