<svg width="50" height="51" viewBox="0 0 50 51" fill="none" xmlns="http://www.w3.org/2000/svg">
<path fill-rule="evenodd" clip-rule="evenodd" d="M0.838867 50.25H6.4389V8.09L41.2391 44.81H19.479V30.81L13.959 25.93V50.25H49.1592V45.29L29.7991 24.89L49.1592 6.09V0.25H13.959V8.09L6.4389 0.25H0.838867V50.25ZM26.279 20.97L41.2391 6.09H19.479V13.77L26.279 20.97Z" fill="#292727"/>
<path d="M6.4389 50.25V50.33H6.5189V50.25H6.4389ZM0.838867 50.25H0.758867V50.33H0.838867V50.25ZM6.4389 8.09L6.49697 8.03497L6.3589 7.88929V8.09H6.4389ZM41.2391 44.81V44.89H41.4252L41.2972 44.755L41.2391 44.81ZM19.479 44.81H19.399V44.89H19.479V44.81ZM19.479 30.81H19.559V30.7739L19.532 30.7501L19.479 30.81ZM13.959 25.93L14.0119 25.8701L13.879 25.7525V25.93H13.959ZM13.959 50.25H13.879V50.33H13.959V50.25ZM49.1592 50.25V50.33H49.2392V50.25H49.1592ZM49.1592 45.29H49.2392V45.2581L49.2172 45.2349L49.1592 45.29ZM29.7991 24.89L29.7433 24.8326L29.6866 24.8877L29.741 24.9451L29.7991 24.89ZM49.1592 6.09L49.2149 6.14739L49.2392 6.12383V6.09H49.1592ZM49.1592 0.25H49.2392V0.17H49.1592V0.25ZM13.959 0.25V0.17H13.879V0.25H13.959ZM13.959 8.09L13.9012 8.14538L14.039 8.28897V8.09H13.959ZM6.4389 0.25L6.49664 0.194622L6.47302 0.17H6.4389V0.25ZM0.838867 0.25V0.17H0.758867V0.25H0.838867ZM41.2391 6.09L41.2955 6.14672L41.433 6.01H41.2391V6.09ZM26.279 20.97L26.2209 21.0249L26.2772 21.0846L26.3355 21.0267L26.279 20.97ZM19.479 6.09V6.01H19.399V6.09H19.479ZM19.479 13.77H19.399V13.8018L19.4208 13.8249L19.479 13.77ZM19.479 6.09V6.01H19.399V6.09H19.479ZM6.4389 50.17H0.838867V50.33H6.4389V50.17ZM6.3589 8.09V50.25H6.5189V8.09H6.3589ZM41.2972 44.755L6.49697 8.03497L6.38084 8.14503L41.1811 44.865L41.2972 44.755ZM19.479 44.89H41.2391V44.73H19.479V44.89ZM19.399 30.81V44.81H19.559V30.81H19.399ZM13.906 25.9899L19.426 30.8699L19.532 30.7501L14.0119 25.8701L13.906 25.9899ZM14.039 50.25V25.93H13.879V50.25H14.039ZM49.1592 50.17H13.959V50.33H49.1592V50.17ZM49.0792 45.29V50.25H49.2392V45.29H49.0792ZM29.741 24.9451L49.1012 45.3451L49.2172 45.2349L29.8571 24.8349L29.741 24.9451ZM49.1034 6.03261L29.7433 24.8326L29.8548 24.9474L49.2149 6.14739L49.1034 6.03261ZM49.0792 0.25V6.09H49.2392V0.25H49.0792ZM13.959 0.33H49.1592V0.17H13.959V0.33ZM14.039 8.09V0.25H13.879V8.09H14.039ZM6.38117 0.305378L13.9012 8.14538L14.0167 8.03462L6.49664 0.194622L6.38117 0.305378ZM0.838867 0.33H6.4389V0.17H0.838867V0.33ZM0.918867 50.25V0.25H0.758867V50.25H0.918867ZM41.1827 6.03328L26.2226 20.9133L26.3355 21.0267L41.2955 6.14672L41.1827 6.03328ZM19.479 6.17H41.2391V6.01H19.479V6.17ZM19.559 13.77V6.09H19.399V13.77H19.559ZM26.3372 20.9151L19.5371 13.7151L19.4208 13.8249L26.2209 21.0249L26.3372 20.9151ZM19.559 13.77V6.09H19.399V13.77H19.559ZM19.479 6.17H41.2391V6.01H19.479V6.17Z" fill="black"/>
</svg>
